# File created by Blade
# Date/Time:  Wed Jan 21 16:27:40 2015
# Frame Rate: 120.000 fps
#------------------------------------------------------
:FULLY-SPECIFIED
:DEGREES
1042
root 17.704678 8.447161 -20.868737 -184.273800 32.788442 -200.005235
Spine 41.637184 -18.146177 -11.369621
Head 8.201028 -18.899978 6.341726
LeftShoulder 11.300639 -29.366300 7.702359
LeftArm 13.399366 51.026689 -88.899421
LeftForeArm 20.055053 -0.000000 26.369424
LeftHand -11.950275 -0.000000 21.821974
LeftHandThumb1 -26.253704 0.000000 33.147579
RightShoulder -4.215747 -13.415780 16.774087
RightArm 25.197233 -13.150326 57.278128
RightForeArm -30.941067 -0.000000 36.133074
RightHand -1.389113 -0.000000 -19.124564
RightHandThumb1 -24.326973 -0.000000 -32.862282
LeftUpLeg 18.784835 -9.981550 37.343782
LeftLeg 40.184170 -0.000000 -0.000000
LeftFoot 6.567074 53.193549 3.410564
LeftToeBase 24.148957 -0.000000 -0.000000
RightUpLeg -97.123068 -39.978288 5.008659
RightLeg -5.274354 -0.000000 0.000000
RightFoot 24.327788 -41.066675 -10.878800
RightToeBase 30.894604 -0.000000 -0.000000
1043
root 17.701557 8.457709 -20.871055 -184.196127 32.813438 -199.912364
Spine 41.834922 -18.277236 -11.524139
Head 8.009943 -18.604230 6.340547
LeftShoulder 11.474422 -29.594624 7.471606
LeftArm 14.141998 51.532570 -88.347503
LeftForeArm 20.048694 -0.000000 24.831403
LeftHand -11.872122 0.000000 21.719024
LeftHandThumb1 -26.253704 0.000000 33.147579
RightShoulder -3.940427 -13.361397 16.734663
RightArm 25.227673 -13.295499 57.117674
RightForeArm -30.835295 0.000000 36.072221
RightHand -1.385535 -0.000000 -19.077979
RightHandThumb1 -24.326973 -0.000000 -32.862282
LeftUpLeg 18.768592 -9.952053 37.403774
LeftLeg 40.209200 -0.000000 -0.000000
LeftFoot 6.476645 53.212147 3.310730
LeftToeBase 24.167041 -0.000000 -0.000000
RightUpLeg -97.149940 -39.976665 5.153399
RightLeg -5.281176 -0.000000 0.000000
RightFoot 23.955578 -41.196970 -10.388929
RightToeBase 30.934925 -0.000000 -0.000000
1044
root 17.693008 8.467684 -20.877168 -184.177706 32.864060 -199.959581
Spine 42.023560 -18.343725 -11.817719
Head 7.773186 -18.281197 6.413298
LeftShoulder 11.539742 -29.825716 7.313039
LeftArm 15.120633 52.337681 -87.629335
LeftForeArm 19.760792 -0.000000 23.213679
LeftHand -11.829600 -0.000000 21.653125
LeftHandThumb1 -26.253704 0.000000 33.147579
RightShoulder -3.660525 -13.245640 16.721415
RightArm 25.174610 -13.489556 56.959920
RightForeArm -30.786416 -0.000000 36.062620
RightHand -1.428524 -0.000000 -19.005003
RightHandThumb1 -24.326973 -0.000000 -32.862282
LeftUpLeg 18.781521 -9.914885 37.307606
LeftLeg 40.201341 -0.000000 -0.000000
LeftFoot 6.487942 53.290765 3.310464
LeftToeBase 24.164702 -0.000000 -0.000000
RightUpLeg -97.108156 -39.955578 5.062028
RightLeg -5.329497 -0.000000 0.000000
RightFoot 23.892760 -41.234936 -10.267709
RightToeBase 31.146323 -0.000000 -0.000000
1045
root 17.689093 8.476160 -20.880343 -184.105675 32.907050 -199.924431
Spine 42.212603 -18.465395 -12.065480
Head 7.576158 -17.939677 6.436387
LeftShoulder 11.549256 -30.077582 7.214491
LeftArm 16.135042 53.208910 -86.824336
LeftForeArm 18.689896 -0.000000 21.845544
LeftHand -11.773265 0.000000 21.577514
LeftHandThumb1 -26.253704 0.000000 33.147579
RightShoulder -3.424618 -13.338007 16.721201
RightArm 25.425869 -13.764233 56.638985
RightForeArm -30.463900 -0.000000 35.911009
RightHand -1.477041 -0.000000 -19.915332
RightHandThumb1 -24.326973 -0.000000 -32.862282
LeftUpLeg 18.766695 -9.852465 37.318038
LeftLeg 40.215975 -0.000000 -0.000000
LeftFoot 6.509374 53.277388 3.339559
LeftToeBase 24.123690 -0.000000 -0.000000
RightUpLeg -97.137125 -39.913352 5.120786
RightLeg -5.338479 -0.000000 0.000000
RightFoot 23.781371 -41.421717 -10.191481
RightToeBase 31.177972 -0.000000 -0.000000
1046
root 17.685784 8.485237 -20.882186 -184.008685 32.929766 -199.872008
Spine 42.399943 -18.596743 -12.292553
Head 7.352539 -17.609219 6.477351
LeftShoulder 11.510168 -30.202473 7.238792
LeftArm 17.341894 54.012250 -85.815793
LeftForeArm 17.059485 0.000000 20.953294
LeftHand -12.021072 -0.000000 20.893232
LeftHandThumb1 -26.253704 0.000000 33.147579
RightShoulder -3.166345 -13.367025 16.749962
RightArm 25.547034 -13.889280 56.371970
RightForeArm -30.618877 -0.000000 35.933668
RightHand -1.665678 -0.000000 -19.138830
RightHandThumb1 -24.326973 -0.000000 -32.862282
LeftUpLeg 18.718798 -9.797030 37.353887
LeftLeg 40.222246 -0.000000 -0.000000
LeftFoot 6.476056 53.316070 3.293795
LeftToeBase 24.115146 -0.000000 -0.000000
RightUpLeg -97.231674 -39.903083 5.279502
RightLeg -5.368361 -0.000000 0.000000
RightFoot 23.793239 -41.401431 -10.166464
RightToeBase 31.333086 -0.000000 -0.000000
1047
root 17.682789 8.492648 -20.883026 -183.921141 32.941651 -199.835743
Spine 42.593224 -18.706341 -12.537776
Head 7.125226 -17.308509 6.531513
LeftShoulder 11.464888 -30.328251 7.415698
LeftArm 18.248758 54.538024 -85.134798
LeftForeArm 15.529188 -0.000000 20.409344
LeftHand -11.952447 -0.000000 20.935342
LeftHandThumb1 -26.253704 0.000000 33.147579
RightShoulder -2.889001 -13.288929 16.750962
RightArm 25.514005 -13.989203 56.225561
RightForeArm -30.664221 -0.000000 35.985715
RightHand -1.616103 0.000000 -18.516780
RightHandThumb1 -24.326973 -0.000000 -32.862282
LeftUpLeg 18.663559 -9.753335 37.374704
LeftLeg 40.245513 -0.000000 -0.000000
LeftFoot 6.505635 53.303878 3.339048
LeftToeBase 24.110596 -0.000000 -0.000000
RightUpLeg -97.316290 -39.897363 5.394666
RightLeg -5.382472 -0.000000 0.000000
RightFoot 23.735721 -41.464334 -10.085747
RightToeBase 31.393597 -0.000000 -0.000000
1048
root 17.681332 8.499603 -20.884822 -183.837722 32.953917 -199.792506
Spine 42.809890 -18.788690 -12.788894
Head 6.891873 -17.026957 6.606801
LeftShoulder 11.443389 -30.485158 7.688750
LeftArm 18.826153 55.107828 -84.719024
LeftForeArm 14.544020 0.000000 20.265102
LeftHand -11.997641 0.000000 21.810183
LeftHandThumb1 -26.253704 0.000000 33.147579
RightShoulder -2.665540 -13.204397 16.778801
RightArm 25.578023 -14.244662 55.975978
RightForeArm -30.540236 0.000000 35.931482
RightHand -1.671140 0.000000 -18.354766
RightHandThumb1 -24.326973 -0.000000 -32.862282
LeftUpLeg 18.628528 -9.706554 37.410833
LeftLeg 40.224669 -0.000000 -0.000000
LeftFoot 6.537601 53.324017 3.379547
LeftToeBase 24.145248 -0.000000 -0.000000
RightUpLeg -97.351353 -39.884313 5.454072
RightLeg -5.389558 -0.000000 0.000000
RightFoot 23.659459 -41.621802 -10.045614
RightToeBase 31.500293 -0.000000 -0.000000
1049
root 17.681219 8.508988 -20.892100 -183.835981 32.967400 -199.803972
Spine 43.084142 -18.775426 -13.063832
Head 6.606338 -16.801497 6.748786
LeftShoulder 11.392788 -30.505673 8.109835
LeftArm 19.398550 55.471652 -84.472964
LeftForeArm 14.413560 0.000000 20.222068
LeftHand -12.429186 -0.000000 22.022479
LeftHandThumb1 -26.253704 0.000000 33.147579
RightShoulder -2.513447 -13.122567 16.853620
RightArm 25.652478 -14.402842 55.780596
RightForeArm -30.497838 -0.000000 35.844534
RightHand -1.635707 -0.000000 -18.310752
RightHandThumb1 -24.326973 -0.000000 -32.862282
LeftUpLeg 18.661901 -9.730783 37.345971
LeftLeg 40.179795 -0.000000 -0.000000
LeftFoot 6.630595 53.361022 3.444170
LeftToeBase 24.145100 -0.000000 -0.000000
RightUpLeg -97.474415 -39.863579 5.608386
RightLeg -5.343156 -0.000000 0.000000
RightFoot 23.615064 -41.630536 -10.009857
RightToeBase 31.442437 -0.000000 -0.000000
